<svg width="11" height="12" viewBox="0 0 11 12" fill="none" xmlns="http://www.w3.org/2000/svg">
<path d="M10.3237 7.131C10.2649 7.189 10.0426 7.437 9.83563 7.641C8.62196 8.924 5.45586 11.024 3.79873 11.665C3.54707 11.768 2.9108 11.986 2.57085 12C2.24511 12 1.93459 11.928 1.63827 11.782C1.2689 11.578 0.972582 11.257 0.810218 10.878C0.705696 10.615 0.543332 9.828 0.543332 9.814C0.380968 8.953 0.291668 7.554 0.291668 6.008C0.291668 4.535 0.380968 3.193 0.513904 2.319C0.529125 2.305 0.691489 1.327 0.869075 0.992C1.19482 0.38 1.83108 0 2.512 0H2.57085C3.01431 0.015 3.94689 0.395 3.94689 0.409C5.51472 1.051 8.60775 3.048 9.85085 4.375C9.85085 4.375 10.2009 4.716 10.3532 4.929C10.5906 5.235 10.7083 5.614 10.7083 5.993C10.7083 6.416 10.5754 6.81 10.3237 7.131Z" fill="#B90004"/>
</svg>
